<svg width="150" height="48" viewBox="0 0 150 48" fill="none" xmlns="http://www.w3.org/2000/svg">
<path d="M16.673 41.1711H30.6551C34.3732 41.1711 37.3873 38.0945 37.3873 34.2993V13.1556C37.3873 9.36042 34.3732 6.28384 30.6551 6.28384H16.673V11.5698H30.6551C31.5131 11.5698 32.2087 12.2798 32.2087 13.1556V34.2993C32.2087 35.1751 31.5131 35.8851 30.6551 35.8851H16.673V41.1711Z" fill="#3338B5"/>
<rect x="16.7886" y="18.9701" width="13.7435" height="2.11438" rx="1.05719" fill="#3338B5"/>
<rect x="19.4315" y="22.6702" width="11.1005" height="2.11438" rx="1.05719" fill="#3338B5"/>
<rect x="17.8457" y="26.3704" width="12.6863" height="2.11438" rx="1.05719" fill="#3338B5"/>
<path fill-rule="evenodd" clip-rule="evenodd" d="M2.5 17.9129H11.2218C12.7271 17.9129 13.9474 16.6926 13.9474 15.1874V6.28384L2.5 17.9129ZM9.26435 41.171H13.9474V35.8851H9.26435C8.40224 35.8851 7.70335 35.1751 7.70335 34.2993V20.0272H2.5V34.2993C2.5 38.0945 5.5285 41.171 9.26435 41.171Z" fill="#37BA73"/>
<path d="M78.6995 6.57498V12.4651H68.2691V41.425H61.4455V12.4651H51.015V6.57498H78.6995Z" fill="#2A2736"/>
<path d="M111.834 23.9018C111.899 29.203 110.339 33.6042 107.155 37.1056C103.97 40.607 99.795 42.3249 94.6285 42.2595C91.9965 42.2595 89.6245 41.8014 87.5124 40.8851C85.4328 39.9689 83.3045 38.48 81.1274 36.4184L85.1241 31.7554C87.1387 33.4242 88.7959 34.5859 90.0956 35.2404C91.4929 35.8948 93.0526 36.2221 94.7747 36.2221C97.5692 36.2221 99.86 35.3386 101.647 33.5715C103.434 31.8045 104.523 29.383 104.913 26.307H90.2419V20.5641H104.766C104.247 17.8154 103.093 15.672 101.306 14.134C99.5188 12.5633 97.3092 11.7779 94.6772 11.7779C93.085 11.7779 91.6066 12.0725 90.2419 12.6615C88.8771 13.2178 87.3499 14.2322 85.6603 15.7047L81.6636 10.9435C83.7431 9.07829 85.774 7.75301 87.7561 6.96766C89.7382 6.14958 92.0128 5.74054 94.5798 5.74054C99.8112 5.6751 104.003 7.3767 107.155 10.8453C110.339 14.2813 111.899 18.6334 111.834 23.9018Z" fill="#2A2736"/>
<path d="M139.702 41.425L129.174 26.0125H123.91V41.425H117.086V6.57498H123.91V20.2205H129.271L139.263 6.57498H147.013L134.876 22.9692L147.5 41.425H139.702Z" fill="#2A2736"/>
</svg>
