<svg width="64" height="64" viewBox="0 0 64 64" fill="none" xmlns="http://www.w3.org/2000/svg">
<path d="M26 64H51.65C58.4707 64 64 58.3561 64 51.3939V12.6061C64 5.64393 58.4707 0 51.65 0H26V9.69697H51.65C53.224 9.69697 54.5 10.9994 54.5 12.6061V51.3939C54.5 53.0006 53.224 54.303 51.65 54.303H26V64Z" fill="#3338B5"/>
<rect x="26.2122" y="23.2728" width="25.2121" height="3.87879" rx="1.93939" fill="#3338B5"/>
<rect x="31.0607" y="30.0606" width="20.3636" height="3.87879" rx="1.93939" fill="#3338B5"/>
<rect x="28.1515" y="36.8485" width="23.2727" height="3.87879" rx="1.93939" fill="#3338B5"/>
<path fill-rule="evenodd" clip-rule="evenodd" d="M0 21.3333H16C18.7614 21.3333 21 19.0948 21 16.3333V0L0 21.3333ZM12.4091 64H21V54.303H12.4091C10.8275 54.303 9.54545 53.0006 9.54545 51.3939V25.2119H0V51.3939C0 58.356 5.55574 64 12.4091 64Z" fill="#37BA73"/>
</svg>
